/* XPM */
static char *debian[] = {
/* columns rows colors chars-per-pixel */
"128 64 2 1 ",
"  c black",
". c gray100",
/* pixels */
"................................................................................................................................",
"................................................................................................................................",
"................................................................................................................................",
"......................... ......................................................................................................",
".......................    .   .. ..............................................................................................",
"....................                ............................................................................................",
"..................                      ........................................................................................",
"................                          ......................................................................................",
"...............                     .       ....................................................................................",
".............   .        ....... .           ...................................................................................",
"............. .        ..............   . .   ..................................................................................",
"............         .................         .................................................................................",
"...........       .....................        .................................................................................",
"...........       .......................       ................................................................................",
".........        ........................   .    ...............................................................................",
".........      ...........................       ...............................................................................",
"...... ..     .............................  .    ..............................................................................",
"........     ..............................     . ..............................................................................",
".......     ................................   .. ..............................................................................",
".......    ..................     ..........     ..........................................  ...................................",
"......     ................    .    ........     ...........    ............    ..........   ...................................",
".... .  . ...............    ................   ...........     ............    .........     ..................................",
"......    ...............  ..................    . .........    ............    ..........   ...................................",
"......    ..............  ...................    ...........   .............    ........... ....................................",
".....    ..............  ....................   ............    ............    ................................................",
".....    ..............  ....................    ........  .   ......  .....    ...  ....... ......  .......... ...   ..........",
"......   .............. .....................    .....          ...       ..    .     ...     ..         ...           .........",
".....   ..............  .............. ......    ....          ...         .           ..    ..           ...           ........",
".....    .............  .....................    ...     ..    ..    ..    .            ..    ..          ...      .    ........",
".....   ..............  .....................   ....    ....    .   ....   .     ...    ..   ... .....    ...    ...    ........",
".....   ..............  .....................   ....    ....   .    ....         ...    ..   ..........   ...    ....   ........",
".....   ..............  ............. .......   ...    .....   .    ....        ....    ..    .........   ...    ...    ........",
".....   ..............   ............ ......   ....    .....   .                ....    ..    ...         ...    ....   ........",
".....   ...............  ..................    ....    .....   .                .....    .   ...          ...    ...    ........",
"..... . ...............   ......  .........   ......   .....               .    .....   ..    .     ...   ...    ....   ........",
".....   ...............   ................   ......    .....   .    ........    ....    ..   ..    ....   ...   ....     .......",
".....    ............. ..  ..............   .......    .....   .    ........    ....    ..    .   ....    ...    ....   ........",
".....    .............. .   ............   .........    ....   ..   ........    ....    ..    .   ....    ...    ...    ........",
".....    ............... .    .......     ..........    ...    ..    .......    ....    ..   ..   ....    ...   .....   ........",
"......   ................  .            ............            .     .... .    ...    ...    .           ...    ....   ........",
"......   .................            ...............           ..         .          ....    .           ...    ...     .......",
"......     ................... ... ...................          ...                  ....     ..      .    ..    ...    ........",
".......    ....................   .....................   ..   ......      ..      ....... . ....   ...   ... . ..... .  .......",
".......     ....................................................................................................................",
".......      ...................................................................................................................",
".........   ............................................................... ... . ... .. .......................................",
"........     ......................................................... ...... ...... ...... ....................................",
".........    ............................................................ . ... ......... ... . . ..............................",
".........    ........................................................... .. ... . ... .. .. . ... ..............................",
"..........    ..................................................................................................................",
"...........    .................................................................................................................",
"...........    .................................................................................................................",
"............    ................................................................................................................",
".............    ...............................................................................................................",
"..............     .............................................................................................................",
"...............    .............................................................................................................",
"................     ...........................................................................................................",
".................    ...........................................................................................................",
"...................    .........................................................................................................",
".....................    .......................................................................................................",
"......................    ......................................................................................................",
"..........................  . ..................................................................................................",
"................................................................................................................................",
"................................................................................................................................"
};
